<svg id="svg" version="1.1" width="400" height="395.4022988505747" viewBox="0 0 400 395.4022988505747" xmlns="http://www.w3.org/2000/svg" xmlns:xlink="http://www.w3.org/1999/xlink" ><g id="svgg"><path id="path0" d="M177.250 1.385 L 177.250 2.770 163.403 2.770 L 149.555 2.770 149.555 4.946 L 149.555 7.122 142.829 7.122 L 136.103 7.122 136.103 9.496 L 136.103 11.869 129.179 11.869 L 122.255 11.869 122.255 14.033 L 122.255 16.196 117.606 16.308 L 112.957 16.419 112.839 18.682 L 112.721 20.944 108.289 21.055 L 103.858 21.167 103.739 23.442 L 103.620 25.717 99.090 25.717 L 94.560 25.717 94.560 27.893 L 94.560 30.069 90.010 30.069 L 85.460 30.069 85.460 32.423 L 85.460 34.778 83.185 34.896 L 80.910 35.015 80.791 37.290 L 80.673 39.565 78.319 39.565 L 75.964 39.565 75.964 41.720 L 75.964 43.876 73.887 43.995 L 71.810 44.115 71.691 46.390 L 71.573 48.665 67.043 48.665 L 62.512 48.665 62.512 50.821 L 62.512 52.977 60.237 53.096 L 57.962 53.215 57.844 55.470 L 57.726 57.726 55.470 57.844 L 53.215 57.962 53.096 60.237 L 52.977 62.512 50.821 62.512 L 48.665 62.512 48.665 67.043 L 48.665 71.573 46.390 71.691 L 44.115 71.810 43.996 74.085 L 43.877 76.360 41.721 76.360 L 39.565 76.360 39.565 78.516 L 39.565 80.673 37.290 80.791 L 35.015 80.910 34.897 83.166 L 34.779 85.422 32.523 85.540 L 30.267 85.658 30.155 90.109 L 30.043 94.560 27.880 94.560 L 25.717 94.560 25.717 99.090 L 25.717 103.620 23.442 103.739 L 21.167 103.858 21.056 108.506 L 20.944 113.155 18.583 113.155 L 16.222 113.155 16.222 117.685 L 16.222 122.214 14.144 122.333 L 12.067 122.453 11.959 129.278 L 11.851 136.103 9.486 136.103 L 7.122 136.103 7.122 143.027 L 7.122 149.951 4.946 149.951 L 2.770 149.951 2.770 168.348 L 2.770 186.746 1.385 186.746 L 0.000 186.746 0.000 197.033 L 0.000 207.319 1.369 207.319 C 4.310 207.319,5.301 210.581,3.106 213.037 C 2.921 213.243,2.770 220.766,2.770 229.753 L 2.770 246.093 4.936 246.093 L 7.103 246.093 7.211 252.918 L 7.319 259.743 9.594 259.861 L 11.869 259.980 11.869 269.060 L 11.869 278.140 13.080 278.140 C 13.799 278.140,14.189 277.977,14.042 277.738 C 13.905 277.517,13.647 277.426,13.470 277.536 C 12.886 277.897,12.399 276.789,12.301 274.876 L 12.205 272.997 14.622 272.997 C 17.508 272.997,17.753 273.338,16.839 276.091 C 16.356 277.543,16.223 279.204,16.307 282.733 L 16.419 287.438 18.694 287.557 L 20.969 287.675 20.969 289.832 L 20.969 291.988 23.343 291.988 L 25.717 291.988 25.717 296.736 L 25.717 301.484 27.880 301.484 L 30.043 301.484 30.155 305.935 L 30.267 310.386 32.523 310.504 L 34.779 310.622 34.897 312.878 L 35.015 315.134 37.290 315.252 L 39.565 315.371 39.565 319.901 L 39.565 324.431 41.741 324.431 L 43.917 324.431 43.917 326.607 L 43.917 328.783 46.291 328.783 L 48.665 328.783 48.665 331.157 L 48.665 333.531 50.821 333.531 L 52.977 333.531 53.096 335.806 L 53.215 338.081 55.490 338.200 L 57.765 338.318 57.765 340.475 L 57.765 342.631 60.138 342.631 L 62.512 342.631 62.512 345.005 L 62.512 347.379 64.669 347.379 L 66.825 347.379 66.944 349.654 L 67.062 351.929 69.317 352.047 L 71.572 352.165 71.691 354.223 L 71.810 356.281 73.868 356.400 L 75.926 356.519 76.044 358.774 L 76.162 361.029 80.811 361.140 L 85.460 361.252 85.460 363.415 L 85.460 365.579 87.616 365.579 L 89.773 365.579 89.891 367.854 L 90.010 370.129 94.659 370.240 L 99.308 370.352 99.308 372.713 L 99.308 375.074 103.858 375.074 L 108.408 375.074 108.408 377.250 L 108.408 379.426 112.938 379.426 L 117.468 379.426 117.587 381.701 L 117.705 383.976 122.137 384.088 L 126.569 384.200 126.687 386.462 L 126.805 388.724 133.610 388.832 L 140.414 388.940 140.534 391.008 L 140.653 393.076 147.478 393.184 L 154.303 393.293 154.303 394.470 L 154.303 395.648 200.198 395.648 L 246.093 395.648 246.093 394.470 L 246.093 393.293 252.918 393.184 L 259.743 393.076 259.862 390.999 L 259.982 388.922 266.687 388.922 L 273.393 388.922 273.393 386.548 L 273.393 384.174 279.071 384.174 C 285.380 384.174,287.244 383.781,287.234 382.454 C 287.225 381.174,286.627 380.370,286.306 381.206 C 285.935 382.173,286.009 382.481,286.449 381.800 C 286.787 381.277,286.833 381.280,286.839 381.820 C 286.845 382.482,286.106 383.383,285.555 383.383 C 285.368 383.383,285.328 383.160,285.466 382.888 C 285.604 382.616,285.461 382.705,285.149 383.086 C 283.786 384.749,282.097 383.788,282.097 381.350 C 282.097 379.059,282.410 378.847,285.120 379.302 C 286.177 379.479,288.155 379.571,289.515 379.506 L 291.988 379.389 291.988 377.244 L 291.988 375.100 296.439 374.988 L 300.890 374.876 301.009 372.601 L 301.128 370.326 305.658 370.326 L 310.188 370.326 310.188 367.953 L 310.188 365.579 312.562 365.579 L 314.936 365.579 314.936 363.403 L 314.936 361.227 319.486 361.227 L 324.036 361.227 324.036 358.872 L 324.036 356.518 326.311 356.400 L 328.586 356.281 328.704 354.223 L 328.823 352.165 331.078 352.047 L 333.333 351.929 333.451 349.674 L 333.569 347.419 335.627 347.300 L 337.685 347.181 337.804 344.906 L 337.923 342.631 340.277 342.631 L 342.631 342.631 342.631 340.455 L 342.631 338.279 344.807 338.279 L 346.983 338.279 346.983 335.925 L 346.983 333.571 349.258 333.452 L 351.533 333.333 351.652 331.058 L 351.770 328.783 354.125 328.783 L 356.479 328.783 356.479 326.607 L 356.479 324.431 358.686 324.431 L 360.893 324.431 360.726 321.563 C 360.634 319.985,360.287 318.002,359.955 317.155 C 359.291 315.461,359.434 314.144,360.284 314.144 C 360.585 314.144,360.831 313.943,360.831 313.698 C 360.831 313.104,364.857 313.623,365.268 314.269 C 365.432 314.527,365.569 313.803,365.573 312.661 L 365.579 310.584 367.755 310.584 L 369.931 310.584 369.931 306.053 L 369.931 301.523 372.206 301.405 L 374.481 301.286 374.599 299.013 C 374.685 297.380,374.490 296.226,373.907 294.908 C 372.895 292.620,372.895 292.189,373.911 291.173 C 374.807 290.277,378.522 290.392,379.124 291.335 C 379.283 291.585,379.417 290.856,379.420 289.713 L 379.426 287.636 381.602 287.636 L 383.778 287.636 383.778 282.888 L 383.778 278.140 386.152 278.140 L 388.526 278.140 388.526 269.060 L 388.526 259.980 390.801 259.861 L 393.076 259.743 393.184 252.938 L 393.292 246.134 395.360 246.014 L 397.428 245.895 397.532 229.941 C 397.617 216.858,397.534 213.760,397.074 212.730 C 395.638 209.512,396.198 207.715,398.638 207.715 L 400.000 207.715 400.000 197.230 L 400.000 186.746 398.813 186.746 L 397.626 186.746 397.626 168.348 L 397.626 149.951 395.450 149.951 L 393.274 149.951 393.274 143.027 L 393.274 136.103 390.909 136.103 L 388.545 136.103 388.437 129.278 L 388.328 122.453 386.053 122.334 L 383.778 122.216 383.778 117.685 L 383.778 113.155 381.615 113.155 L 379.451 113.155 379.340 108.506 L 379.228 103.858 376.966 103.739 L 374.704 103.621 374.592 99.189 L 374.481 94.758 372.206 94.639 L 369.931 94.520 369.931 89.990 L 369.931 85.460 367.774 85.460 L 365.618 85.460 365.499 83.185 L 365.381 80.910 363.106 80.791 L 360.831 80.673 360.831 78.516 L 360.831 76.360 358.675 76.360 L 356.518 76.360 356.400 74.085 L 356.281 71.810 354.006 71.691 L 351.731 71.573 351.731 67.043 L 351.731 62.512 349.357 62.512 L 346.983 62.512 346.983 60.138 L 346.983 57.765 344.827 57.765 L 342.671 57.765 342.552 55.490 L 342.433 53.215 340.178 53.097 L 337.923 52.979 337.804 50.921 L 337.685 48.863 333.254 48.751 L 328.822 48.639 328.704 46.377 L 328.586 44.115 326.311 43.996 L 324.036 43.877 324.036 41.721 L 324.036 39.565 321.879 39.565 L 319.723 39.565 319.604 37.290 L 319.486 35.015 317.230 34.897 L 314.974 34.779 314.856 32.523 L 314.738 30.267 310.287 30.155 L 305.836 30.043 305.836 27.880 L 305.836 25.717 301.306 25.717 L 296.775 25.717 296.657 23.442 L 296.538 21.167 291.889 21.056 L 287.240 20.944 287.240 18.583 L 287.240 16.222 284.669 16.222 C 283.254 16.222,282.097 16.371,282.097 16.555 C 282.097 16.738,281.429 17.105,280.613 17.372 C 279.797 17.638,278.943 17.936,278.716 18.034 C 277.009 18.769,275.601 13.257,277.250 12.297 C 277.740 12.011,275.954 11.890,271.137 11.881 L 264.332 11.869 264.214 9.594 L 264.095 7.319 257.270 7.211 L 250.445 7.103 250.445 4.936 L 250.445 2.770 236.795 2.770 L 223.145 2.770 223.145 1.385 L 223.145 0.000 200.198 0.000 L 177.250 0.000 177.250 1.385 M281.615 12.399 C 282.111 12.674,282.393 13.024,282.241 13.176 C 282.089 13.328,282.173 13.452,282.427 13.452 C 283.115 13.452,282.984 12.387,282.262 12.110 C 281.144 11.680,280.688 11.884,281.615 12.399 M214.125 50.544 L 214.243 52.819 225.618 52.924 L 236.993 53.029 236.993 55.199 L 236.993 57.369 246.291 57.369 L 255.589 57.369 255.589 59.743 L 255.589 62.117 260.119 62.117 L 264.649 62.117 264.768 64.392 L 264.886 66.667 269.337 66.779 L 273.788 66.890 273.788 69.054 L 273.788 71.217 276.428 71.217 C 278.146 71.217,279.285 71.021,279.692 70.657 C 280.870 69.600,283.112 69.462,284.038 70.388 C 285.134 71.485,285.225 74.925,284.174 75.537 C 283.639 75.848,283.955 75.943,285.559 75.952 L 287.636 75.964 287.636 78.319 L 287.636 80.673 285.361 80.791 L 283.086 80.910 282.967 83.185 C 282.849 85.453,282.845 85.460,281.583 85.472 C 280.537 85.482,280.436 85.554,281.004 85.884 C 281.910 86.412,283.267 85.696,283.333 84.655 C 283.455 82.748,284.022 81.610,284.978 81.354 C 287.512 80.675,288.097 81.270,288.190 84.625 C 288.229 86.021,288.215 86.033,286.152 86.369 L 284.075 86.707 284.075 88.211 C 284.075 90.052,283.423 90.646,281.371 90.674 C 279.388 90.701,278.811 90.348,279.081 89.271 C 279.198 88.803,279.127 88.155,278.921 87.831 C 278.672 87.436,278.546 88.445,278.542 90.880 L 278.536 94.520 276.261 94.639 L 273.986 94.758 273.867 97.033 L 273.749 99.308 271.593 99.308 L 269.436 99.308 269.436 101.464 L 269.436 103.620 267.161 103.739 L 264.886 103.858 264.886 110.584 L 264.886 117.310 267.195 117.429 C 268.590 117.502,270.278 117.291,271.462 116.898 C 273.833 116.111,274.393 116.278,274.711 117.868 C 274.921 118.918,275.209 119.156,276.784 119.577 C 280.045 120.449,281.547 123.581,279.946 126.170 C 279.766 126.462,280.211 126.607,281.282 126.607 L 282.888 126.607 282.888 128.783 L 282.888 130.959 286.548 130.960 L 290.208 130.961 290.078 128.877 C 289.885 125.798,290.904 124.629,293.778 124.629 C 295.387 124.629,296.004 124.798,296.309 125.321 C 296.620 125.857,296.715 125.547,296.724 123.957 L 296.736 121.901 298.813 121.781 L 300.890 121.662 301.009 119.604 L 301.128 117.546 303.383 117.428 L 305.638 117.310 305.757 115.035 L 305.875 112.760 308.032 112.760 L 310.188 112.760 310.188 110.386 L 310.188 108.012 312.562 108.012 L 314.936 108.012 315.011 105.737 L 315.085 103.462 315.228 105.737 L 315.371 108.012 317.507 108.012 L 319.644 108.012 319.763 110.287 L 319.881 112.562 322.144 112.680 L 324.406 112.798 324.517 117.230 L 324.629 121.662 326.904 121.780 L 329.179 121.899 329.179 126.429 L 329.179 130.959 331.335 130.959 L 333.492 130.959 333.610 133.234 L 333.729 135.509 335.995 135.628 L 338.260 135.746 338.369 142.552 L 338.477 149.357 340.545 149.476 L 342.613 149.596 342.721 156.400 L 342.829 163.205 345.104 163.323 L 347.379 163.442 347.379 175.094 L 347.379 186.746 328.977 186.746 L 310.576 186.746 310.679 204.847 L 310.781 222.948 329.080 223.050 L 347.379 223.153 347.379 227.877 L 347.379 232.601 345.104 232.720 L 342.829 232.839 342.723 241.819 L 342.616 250.800 340.547 250.919 L 338.477 251.039 338.365 255.687 L 338.254 260.336 335.892 260.336 L 333.531 260.336 333.531 264.886 L 333.531 269.436 331.355 269.436 L 329.179 269.436 329.179 273.966 L 329.179 278.497 326.904 278.615 L 324.629 278.734 324.511 280.990 L 324.393 283.246 322.137 283.364 L 319.881 283.482 319.769 287.933 L 319.658 292.384 317.494 292.384 L 315.331 292.384 315.331 294.758 L 315.331 297.132 312.957 297.132 L 310.584 297.132 310.584 299.308 L 310.584 301.484 308.408 301.484 L 306.231 301.484 306.231 303.858 L 306.231 306.231 303.679 306.231 L 301.128 306.231 301.009 303.956 L 300.890 301.682 298.813 301.562 L 296.736 301.442 296.736 299.287 L 296.736 297.132 294.362 297.132 L 291.988 297.132 291.988 295.074 C 291.988 293.474,291.883 293.122,291.513 293.492 C 290.731 294.274,287.359 294.085,286.483 293.209 C 285.680 292.406,285.871 290.035,286.814 289.091 C 287.048 288.857,287.240 287.448,287.240 285.961 L 287.240 283.257 282.987 283.369 L 278.734 283.482 278.614 285.559 L 278.495 287.636 273.965 287.636 L 269.436 287.636 269.436 288.823 C 269.436 289.476,269.644 290.010,269.898 290.010 C 270.152 290.010,270.242 289.893,270.099 289.750 C 269.741 289.392,270.628 288.384,271.064 288.653 C 271.257 288.772,271.414 288.710,271.414 288.516 C 271.414 288.321,272.127 288.133,272.997 288.099 L 274.580 288.037 274.580 290.657 L 274.580 293.276 272.502 292.981 C 271.360 292.819,269.179 292.663,267.656 292.634 L 264.886 292.582 264.768 294.857 L 264.649 297.132 262.295 297.132 L 259.941 297.132 259.941 299.308 L 259.941 301.484 257.765 301.484 L 255.589 301.484 255.589 306.034 L 255.589 310.584 257.745 310.584 L 259.901 310.584 260.020 312.859 L 260.138 315.134 262.393 315.252 L 264.648 315.370 264.767 317.428 L 264.886 319.486 267.161 319.604 L 269.436 319.723 269.436 321.681 L 269.436 323.640 272.008 323.640 L 274.580 323.640 274.580 324.833 C 274.580 328.047,273.782 329.179,271.516 329.179 L 269.436 329.179 269.436 331.553 L 269.436 333.927 264.688 333.927 L 259.941 333.927 259.941 336.094 L 259.941 338.260 253.116 338.369 L 246.291 338.477 246.172 340.752 L 246.053 343.027 239.347 343.027 L 232.641 343.027 232.641 345.401 L 232.641 347.774 200.218 347.774 L 167.794 347.774 167.676 345.500 L 167.557 343.225 160.732 343.116 L 153.907 343.008 153.907 340.643 L 153.907 338.279 146.983 338.279 L 140.059 338.279 140.059 336.103 L 140.059 333.927 135.529 333.927 L 130.999 333.927 130.880 331.652 L 130.762 329.377 126.311 329.265 L 121.860 329.153 121.860 326.792 C 121.860 324.578,121.917 324.431,122.790 324.431 C 125.990 324.431,126.594 323.510,126.602 318.616 L 126.607 315.373 128.684 315.253 L 130.762 315.134 130.880 312.878 L 130.998 310.622 133.254 310.504 L 135.509 310.386 135.628 308.111 L 135.747 305.836 137.903 305.836 L 140.059 305.836 140.059 299.110 L 140.059 292.384 137.903 292.384 L 135.747 292.384 135.628 290.109 L 135.509 287.834 133.001 287.715 C 131.391 287.639,130.581 287.739,130.739 287.994 C 131.050 288.498,129.559 289.458,127.944 289.794 C 125.997 290.199,124.233 288.231,124.233 285.655 C 124.233 283.978,124.346 283.713,125.124 283.563 C 125.613 283.469,125.088 283.367,123.956 283.338 L 121.899 283.284 121.780 281.009 L 121.662 278.734 115.134 278.734 L 108.605 278.734 108.494 283.166 L 108.382 287.597 106.120 287.716 L 103.858 287.834 103.739 290.109 L 103.620 292.384 101.464 292.384 L 99.308 292.384 99.308 294.758 L 99.308 297.132 96.934 297.132 L 94.560 297.132 94.560 299.308 L 94.560 301.484 92.186 301.484 L 89.812 301.484 89.812 299.308 L 89.812 297.132 87.438 297.132 L 85.064 297.132 85.064 295.074 C 85.064 293.474,84.959 293.122,84.590 293.492 C 83.814 294.267,80.435 294.085,79.571 293.221 C 78.751 292.401,78.840 290.798,79.781 289.427 C 80.102 288.959,80.317 287.573,80.317 285.965 L 80.317 283.284 78.160 283.284 L 76.004 283.284 75.885 281.009 L 75.767 278.734 73.504 278.616 L 71.242 278.497 71.130 274.066 L 71.019 269.634 68.942 269.514 L 66.864 269.395 66.864 264.866 L 66.864 260.336 64.491 260.336 L 62.117 260.336 62.090 255.885 C 62.069 252.388,61.971 251.625,61.634 252.324 C 60.976 253.688,58.010 253.595,56.688 252.169 C 55.624 251.021,55.681 248.903,56.809 247.644 C 57.248 247.154,57.369 245.472,57.369 239.830 L 57.369 232.641 55.193 232.641 L 53.017 232.641 53.017 227.893 L 53.017 223.145 73.591 223.145 L 94.164 223.145 94.133 219.288 C 94.116 217.166,94.012 215.653,93.902 215.925 C 93.523 216.863,90.052 216.534,88.881 215.449 L 87.834 214.479 87.834 204.794 L 87.834 195.108 88.983 194.290 C 90.290 193.359,93.570 193.143,93.902 193.966 C 94.012 194.238,94.116 192.725,94.133 190.603 L 94.164 186.746 73.591 186.746 L 53.017 186.746 53.017 175.074 L 53.017 163.403 55.193 163.403 L 57.369 163.403 57.369 156.498 L 57.369 149.594 59.644 149.476 L 61.919 149.357 62.030 144.956 L 62.142 140.556 63.807 140.333 C 66.390 139.986,66.864 139.108,66.864 134.674 L 66.864 130.959 69.041 130.959 L 71.217 130.959 71.217 126.429 L 71.217 121.899 73.492 121.780 L 75.767 121.662 75.878 117.211 L 75.990 112.760 78.153 112.760 L 80.317 112.760 80.317 110.386 L 80.317 108.012 82.690 108.012 L 85.064 108.012 85.064 105.856 L 85.064 103.699 87.339 103.581 L 89.614 103.462 89.733 101.187 L 89.852 98.912 92.008 98.912 L 94.164 98.912 94.164 96.538 L 94.164 94.164 96.736 94.164 L 99.308 94.164 99.308 95.709 L 99.308 97.253 101.385 97.057 C 105.282 96.688,107.100 99.884,104.649 102.796 C 103.876 103.714,103.660 104.414,103.660 105.992 L 103.660 108.012 106.014 108.012 L 108.368 108.012 108.487 110.287 L 108.605 112.562 110.682 112.681 L 112.760 112.801 112.786 114.857 C 112.809 116.629,112.873 116.791,113.243 116.024 C 113.597 115.288,113.988 115.136,115.491 115.147 C 118.865 115.171,120.109 117.612,118.279 120.614 C 117.663 121.624,117.498 122.472,117.588 124.175 L 117.705 126.409 122.057 126.409 L 126.409 126.409 126.528 124.147 L 126.646 121.885 131.078 121.773 L 135.509 121.662 135.629 119.585 L 135.749 117.507 137.904 117.507 L 140.059 117.507 140.059 115.153 L 140.059 112.799 142.334 112.680 L 144.609 112.562 144.728 110.287 L 144.847 108.012 147.201 108.012 L 149.555 108.012 149.555 103.660 L 149.555 99.308 147.201 99.308 L 144.847 99.308 144.728 97.033 L 144.609 94.758 142.334 94.639 L 140.059 94.520 140.028 92.859 C 140.011 91.945,139.907 91.419,139.797 91.691 C 139.413 92.645,136.017 92.297,134.813 91.181 C 133.473 89.939,133.464 89.416,134.741 87.070 C 135.547 85.590,135.729 84.771,135.632 83.060 L 135.509 80.910 133.234 80.791 L 130.959 80.673 130.959 78.516 L 130.959 76.360 128.783 76.360 L 126.607 76.360 126.607 71.625 L 126.607 66.890 131.058 66.779 L 135.509 66.667 135.628 64.404 L 135.746 62.142 140.178 62.031 L 144.609 61.919 144.728 59.644 L 144.847 57.369 154.125 57.369 L 163.403 57.369 163.403 55.199 L 163.403 53.029 174.777 52.924 L 186.152 52.819 186.271 50.544 L 186.390 48.269 200.198 48.269 L 214.006 48.269 214.125 50.544 M278.536 75.220 C 278.536 75.705,279.497 76.068,280.334 75.899 C 280.777 75.810,280.591 75.616,279.764 75.306 C 279.054 75.040,278.536 75.004,278.536 75.220 M278.932 86.383 C 278.932 86.673,279.169 86.911,279.459 86.911 C 279.749 86.911,279.987 86.673,279.987 86.383 C 279.987 86.093,279.749 85.856,279.459 85.856 C 279.169 85.856,278.932 86.093,278.932 86.383 M133.738 116.964 C 135.274 117.578,135.335 117.668,135.121 119.011 C 134.801 121.030,134.279 121.464,132.172 121.464 L 130.316 121.464 130.223 119.661 C 130.045 116.220,130.673 115.737,133.738 116.964 M112.777 120.353 C 112.768 120.938,112.950 121.535,113.182 121.678 C 113.841 122.086,113.877 121.760,113.315 120.475 L 112.795 119.288 112.777 120.353 M269.436 120.649 C 269.436 121.857,269.441 121.860,271.678 121.860 C 274.118 121.860,274.421 121.609,272.206 121.423 C 270.700 121.297,269.724 120.772,270.040 120.259 C 270.150 120.082,270.059 119.824,269.838 119.687 C 269.599 119.540,269.436 119.930,269.436 120.649 M273.863 125.841 C 273.958 126.126,274.269 126.438,274.555 126.533 C 274.852 126.632,275.000 126.484,274.901 126.187 C 274.806 125.901,274.494 125.590,274.209 125.495 C 273.912 125.396,273.764 125.544,273.863 125.841 M296.017 129.970 C 295.646 130.783,295.671 130.959,296.151 130.959 C 296.511 130.959,296.736 130.579,296.736 129.970 C 296.736 129.426,296.675 128.981,296.602 128.981 C 296.528 128.981,296.264 129.426,296.017 129.970 M65.485 135.312 C 66.285 135.312,66.603 136.802,66.075 138.076 C 65.246 140.078,62.228 140.635,61.875 138.851 C 61.157 135.218,61.126 135.381,62.564 135.208 C 63.297 135.120,64.134 135.107,64.424 135.179 C 64.714 135.252,65.191 135.312,65.485 135.312 M61.459 247.716 C 61.769 248.544,61.962 248.730,62.051 248.287 C 62.220 247.449,61.857 246.489,61.372 246.489 C 61.156 246.489,61.193 247.007,61.459 247.716 M113.695 279.813 C 114.606 283.214,113.885 284.190,110.588 284.020 L 108.767 283.925 108.884 281.933 C 109.015 279.710,109.599 279.173,112.075 279.006 C 113.215 278.930,113.496 279.070,113.695 279.813 M129.650 283.566 C 130.195 283.668,130.579 284.087,130.687 284.698 C 130.836 285.542,130.852 285.527,130.810 284.575 C 130.771 283.697,130.567 283.474,129.773 283.444 C 128.962 283.412,128.939 283.434,129.650 283.566 M83.781 287.899 C 84.054 288.009,84.160 288.290,84.017 288.522 C 83.862 288.772,83.942 288.830,84.212 288.663 C 84.490 288.491,84.669 288.648,84.669 289.063 C 84.669 289.439,84.774 289.641,84.903 289.512 C 85.350 289.065,84.611 287.636,83.950 287.667 C 83.534 287.687,83.471 287.774,83.781 287.899 M289.812 287.906 C 290.946 288.208,291.518 288.756,291.729 289.742 C 291.830 290.216,291.885 289.980,291.852 289.219 C 291.794 287.926,291.698 287.829,290.406 287.764 C 289.644 287.726,289.377 287.790,289.812 287.906 M379.062 295.390 C 379.045 295.628,378.630 296.017,378.140 296.253 C 377.595 296.516,377.480 296.690,377.844 296.703 C 378.766 296.735,379.545 296.093,379.308 295.496 C 379.190 295.199,379.079 295.151,379.062 295.390 M364.968 318.468 C 365.092 318.670,364.822 318.953,364.368 319.098 C 363.913 319.242,363.630 319.449,363.739 319.558 C 363.847 319.667,364.306 319.638,364.758 319.495 C 365.595 319.229,365.920 318.101,365.160 318.101 C 364.929 318.101,364.843 318.266,364.968 318.468 M125.228 319.288 C 125.522 319.288,125.875 319.643,126.013 320.078 C 126.344 321.120,125.414 323.640,124.699 323.640 C 124.324 323.640,124.252 323.468,124.482 323.127 C 124.672 322.844,124.531 322.934,124.170 323.325 C 122.746 324.866,121.644 323.987,121.502 321.196 C 121.405 319.299,122.246 318.654,124.167 319.151 C 124.457 319.226,124.934 319.288,125.228 319.288 M269.436 327.794 C 269.436 328.586,269.634 328.783,270.425 328.783 C 270.969 328.783,271.414 328.576,271.414 328.322 C 271.414 328.068,271.297 327.977,271.154 328.121 C 270.796 328.478,269.788 327.592,270.057 327.156 C 270.177 326.963,270.086 326.805,269.855 326.805 C 269.625 326.805,269.436 327.250,269.436 327.794 " stroke="none" fill="#000000" fill-rule="evenodd"></path><path id="path1" d="M277.250 12.312 C 275.453 13.319,277.049 18.734,278.918 17.971 C 279.252 17.835,280.059 17.531,280.712 17.296 C 282.510 16.648,283.976 13.452,282.476 13.452 C 282.242 13.452,282.149 13.293,282.269 13.098 C 282.776 12.278,278.504 11.610,277.250 12.312 M281.100 69.970 C 277.013 71.286,277.875 75.877,282.222 75.947 C 284.270 75.979,284.866 75.355,284.866 73.181 C 284.866 70.291,283.561 69.178,281.100 69.970 M284.801 81.374 C 284.072 81.567,283.699 82.292,283.410 84.075 C 283.156 85.647,282.733 86.024,281.200 86.040 C 280.393 86.048,279.957 86.236,280.020 86.548 C 280.074 86.820,279.903 86.998,279.639 86.944 C 279.045 86.821,278.821 90.093,279.399 90.450 C 281.304 91.627,284.075 90.300,284.075 88.211 L 284.075 86.707 286.152 86.369 C 288.215 86.033,288.229 86.021,288.190 84.625 C 288.097 81.274,287.465 80.668,284.801 81.374 M135.426 85.934 C 134.726 86.811,133.729 88.951,133.729 89.579 C 133.729 91.563,139.142 93.324,139.819 91.560 C 140.185 90.607,140.094 86.919,139.689 86.278 C 139.208 85.519,135.967 85.257,135.426 85.934 M99.792 97.234 C 99.125 97.456,99.133 102.635,99.802 103.161 C 100.934 104.050,103.946 103.725,104.816 102.619 C 107.383 99.356,104.072 95.807,99.792 97.234 M113.219 116.141 C 111.343 120.258,116.004 124.344,118.294 120.589 C 120.109 117.612,118.853 115.171,115.494 115.147 C 113.926 115.135,113.615 115.271,113.219 116.141 M130.373 117.089 C 130.239 117.512,130.171 118.669,130.223 119.661 L 130.316 121.464 132.172 121.464 C 134.279 121.464,134.801 121.030,135.121 119.011 C 135.447 116.964,130.986 115.158,130.373 117.089 M271.109 116.974 C 269.400 117.586,269.080 118.372,269.964 119.782 C 270.135 120.054,270.153 120.277,270.005 120.277 C 268.969 120.277,270.890 121.320,272.072 121.400 C 273.891 121.522,273.734 121.343,273.872 123.457 C 274.024 125.799,274.698 126.384,277.412 126.529 C 279.972 126.666,280.143 126.513,280.391 123.876 C 280.606 121.581,279.551 120.317,276.807 119.583 C 275.257 119.168,274.953 118.916,274.668 117.809 C 274.274 116.282,273.529 116.107,271.109 116.974 M290.812 125.694 C 290.159 126.524,290.000 127.203,290.091 128.761 L 290.208 130.762 292.859 130.878 C 295.821 131.008,296.736 130.186,296.736 127.392 C 296.736 124.406,292.729 123.257,290.812 125.694 M62.564 135.208 C 61.126 135.381,61.157 135.218,61.875 138.851 C 62.228 140.635,65.246 140.078,66.075 138.076 C 66.603 136.802,66.285 135.312,65.485 135.312 C 65.191 135.312,64.714 135.252,64.424 135.179 C 64.134 135.107,63.297 135.120,62.564 135.208 M88.922 194.309 L 87.834 195.120 87.834 204.800 L 87.834 214.479 88.881 215.449 C 90.157 216.632,93.514 216.861,93.924 215.794 C 94.237 214.977,94.237 194.914,93.924 194.098 C 93.559 193.146,90.296 193.283,88.922 194.309 M0.000 210.682 L 0.000 214.045 1.340 214.045 C 2.721 214.045,3.098 213.584,4.294 210.440 C 4.848 208.981,3.290 207.319,1.369 207.319 L 0.000 207.319 0.000 210.682 M396.670 208.579 C 395.517 210.226,397.027 214.045,398.832 214.045 L 400.000 214.045 400.000 210.880 L 400.000 207.715 398.638 207.715 C 397.686 207.715,397.093 207.975,396.670 208.579 M56.904 247.419 C 54.838 250.286,56.114 253.215,59.428 253.215 C 61.957 253.215,62.861 251.012,61.584 247.960 C 60.868 246.248,57.988 245.915,56.904 247.419 M12.317 274.996 C 12.400 276.809,12.695 277.430,13.551 277.590 C 13.714 277.621,13.892 277.683,13.947 277.728 C 15.055 278.647,16.197 278.022,16.817 276.156 C 17.754 273.336,17.519 272.997,14.632 272.997 L 12.226 272.997 12.317 274.996 M109.848 279.520 C 109.179 279.852,108.976 280.359,108.884 281.933 L 108.767 283.925 110.588 284.020 C 113.405 284.166,113.947 283.866,113.941 282.169 C 113.929 278.938,112.668 278.121,109.848 279.520 M125.124 283.542 C 124.349 283.710,124.233 283.984,124.233 285.655 C 124.233 289.263,127.057 290.879,130.050 288.985 C 130.835 288.488,131.151 284.531,130.461 283.841 C 130.205 283.584,126.013 283.350,125.124 283.542 M79.925 288.968 C 78.331 292.689,78.925 293.966,82.246 293.966 C 84.678 293.966,85.088 293.476,84.896 290.793 C 84.659 287.467,81.123 286.168,79.925 288.968 M286.905 288.698 C 285.142 292.380,285.825 293.966,289.170 293.966 C 291.661 293.966,292.177 293.374,291.839 290.904 C 291.418 287.833,288.042 286.323,286.905 288.698 M271.414 288.516 C 271.414 288.710,271.257 288.772,271.064 288.653 C 270.628 288.384,269.741 289.392,270.099 289.750 C 270.242 289.893,270.152 290.010,269.898 290.010 C 269.644 290.010,269.436 290.527,269.436 291.158 C 269.436 292.449,270.811 293.175,273.254 293.175 L 274.580 293.175 274.580 290.606 L 274.580 288.037 272.997 288.099 C 272.127 288.133,271.414 288.321,271.414 288.516 M373.911 291.173 C 372.455 292.629,373.762 296.491,375.747 296.598 C 378.391 296.739,379.330 295.852,379.373 293.173 C 379.413 290.675,375.750 289.334,373.911 291.173 M360.831 313.698 C 360.831 313.943,360.564 314.144,360.237 314.144 C 359.298 314.144,359.322 315.903,360.292 318.157 C 360.859 319.473,361.036 319.588,362.355 319.497 C 364.131 319.375,365.251 318.927,364.960 318.455 C 364.839 318.260,364.914 318.101,365.127 318.101 C 365.563 318.101,365.658 314.913,365.242 314.239 C 364.855 313.614,360.831 313.120,360.831 313.698 M122.524 319.180 C 121.465 319.337,121.413 319.441,121.502 321.196 C 121.644 323.987,122.746 324.866,124.170 323.325 C 124.531 322.934,124.672 322.844,124.482 323.127 C 124.252 323.468,124.324 323.640,124.699 323.640 C 125.414 323.640,126.344 321.120,126.013 320.078 C 125.875 319.643,125.522 319.288,125.228 319.288 C 124.934 319.288,124.457 319.226,124.167 319.151 C 123.877 319.076,123.138 319.089,122.524 319.180 M269.504 325.223 C 269.538 326.093,269.744 326.805,269.963 326.805 C 270.181 326.805,270.242 326.922,270.099 327.065 C 269.741 327.423,270.628 328.431,271.064 328.162 C 271.257 328.043,271.414 328.107,271.414 328.304 C 271.414 328.502,271.917 328.677,272.532 328.695 C 273.785 328.730,274.580 327.256,274.580 324.898 L 274.580 323.640 272.011 323.640 L 269.442 323.640 269.504 325.223 M282.385 379.270 C 281.797 379.858,282.068 383.287,282.723 383.538 C 283.792 383.949,284.559 383.806,285.149 383.086 C 285.461 382.705,285.604 382.616,285.466 382.888 C 285.131 383.550,285.842 383.521,286.398 382.851 C 286.997 382.129,287.401 379.966,286.983 379.717 C 286.348 379.339,282.674 378.981,282.385 379.270 " stroke="none" fill="#000000" fill-rule="evenodd"></path></g></svg>